# xmcd
# 
# Track frame offsets:
#     183
#     11425
#     26098
#     42875
#     56318
#     70715
#     82198
#     92375
#     103920
#     115618
#     126008
#     141883
#     155320
#     167010
#     191508
# 
# Disc length: 2768
# 
# Revision: 8
# Processed by: cddbd v1.5.2PL0 Copyright (c) Steve Scherf et al.
# Submitted via: fre:ac v1.0.31
# 
DISCID=b80ace0f
DTITLE=Tom Astor - Fröhliche Trucker Weihnacht
DYEAR=0
DGENRE=
TTITLE0=Tom Astor - Glatteiszeit (Jingle Belss)
TTITLE1=Tom Astor - Ein Bäumchen mit 10 bunten Kerzen
TTITLE2=Tom Astor - Heiligabend auf dem Truck
TTITLE3=Tom Astor - Weisse Weihnacht (White Christmas)
TTITLE4=Tom Astor - Daddy, ich wünsch mir...
TTITLE5=Tom Astor - Alle Jahre wieder
TTITLE6=Tom Astor - Eine Ladung Weihnachtsbäume
TTITLE7=Tom Astor - Mein Daddy fährt für's Christkind die Geschenke
TTITLE8=Tom Astor - Bitte du kochen mir großen kalten Fuß
TTITLE9=Tom Astor - Der Weihnachtsmann, der fährt 'nen großen Truck
TTITLE10=Tom Astor - Süßer die Glocken nie klingen
TTITLE11=Tom Astor - Kleiner Trommler (Little drummer boy)
TTITLE12=Tom Astor - Zu Bethlehem geboren
TTITLE13=Tom Astor - Stille Nacht, heilige Nacht
TTITLE14=Tom Astor - Frieden - bleibt ein Weihnachtstraum
EXTD=
EXTT0=
EXTT1=
EXTT2=
EXTT3=
EXTT4=
EXTT5=
EXTT6=
EXTT7=
EXTT8=
EXTT9=
EXTT10=
EXTT11=
EXTT12=
EXTT13=
EXTT14=
PLAYORDER=
